<?xml version="1.0" encoding="UTF-8" standalone="no"?>
<!-- Created with Inkscape (http://www.inkscape.org/) -->

<svg
   width="285.75mm"
   height="285.75mm"
   viewBox="0 0 285.75 285.75"
   version="1.1"
   id="svg1"
   inkscape:version="1.4 (86a8ad7, 2024-10-11)"
   sodipodi:docname="Pdei+ Logo.svg"
   xmlns:inkscape="http://www.inkscape.org/namespaces/inkscape"
   xmlns:sodipodi="http://sodipodi.sourceforge.net/DTD/sodipodi-0.dtd"
   xmlns="http://www.w3.org/2000/svg"
   xmlns:svg="http://www.w3.org/2000/svg">
  <sodipodi:namedview
     id="namedview1"
     pagecolor="#505050"
     bordercolor="#eeeeee"
     borderopacity="1"
     inkscape:showpageshadow="0"
     inkscape:pageopacity="0"
     inkscape:pagecheckerboard="0"
     inkscape:deskcolor="#505050"
     inkscape:document-units="mm"
     inkscape:zoom="0.17972959"
     inkscape:cx="4512.3344"
     inkscape:cy="2189.4002"
     inkscape:window-width="1920"
     inkscape:window-height="1009"
     inkscape:window-x="-8"
     inkscape:window-y="-8"
     inkscape:window-maximized="1"
     inkscape:current-layer="layer1">
    <inkscape:page
       x="0"
       y="0"
       width="285.75"
       height="285.75"
       id="page1"
       margin="0"
       bleed="0" />
    <inkscape:page
       x="0.73605949"
       y="324.60223"
       width="285.75"
       height="285.75"
       id="page2"
       margin="0"
       bleed="0" />
    <inkscape:page
       x="350.36432"
       y="-3.6802974"
       width="285.75"
       height="285.75"
       id="page3"
       margin="0"
       bleed="0" />
    <inkscape:page
       x="347.85123"
       y="321.85828"
       width="285.75"
       height="285.75"
       id="page4"
       margin="0"
       bleed="0"
       inkscape:export-filename="Pdei+ Blanco.png"
       inkscape:export-xdpi="300"
       inkscape:export-ydpi="300" />
  </sodipodi:namedview>
  <defs
     id="defs1" />
  <g
     inkscape:label="Capa 1"
     inkscape:groupmode="layer"
     id="layer1">
    <g
       id="g62"
       transform="translate(-8447.6162,4.2333336)">
      <rect
         style="fill:#2b2b5e;fill-opacity:1;stroke-width:0.3;stroke-miterlimit:1"
         id="rect57"
         width="294.21667"
         height="294.21667"
         x="8443.3828"
         y="-8.466671" />
    </g>
    <g
       id="g5"
       transform="translate(1.6793776e-4)">
      <g
         id="g3175-6-2-5-3-9-4-0-0-8"
         transform="matrix(0.98313823,0,0,0.95864588,-10420.701,-2200.9428)"
         style="fill:#ffffff;fill-opacity:1">
        <circle
           class="cls-130"
           cx="10667.07"
           cy="2368.9199"
           r="14.87"
           id="circle3173-0-0-0-8-8-4-12-3-8"
           style="fill:#ffffff;fill-opacity:1" />
        <path
           class="cls-130"
           d="m 10662.865,2416.5177 c -11.274,15.3897 -8.404,9.4257 -8.936,29.4349 -0.201,7.5348 1.801,16.7531 4.671,24.2464 3.62,7.79 9.65,16.061 18.96,24.801 11.79,10.15 27.12,16.28 43.89,16.28 28.51,0 52.88,-17.73 62.7,-42.76 3.17,-8.43 4.57,-16.71 4.62,-24.62 -0.03,-37.15 -30.16,-67.25 -67.32,-67.25 -10.53,0 -20.49,2.42 -29.36,6.73 v 30.66 c 7.66,-8.24 18.59,-13.4 30.73,-13.4 23.17,0 41.96,18.79 41.96,41.96 0,23.17 -18.79,41.96 -41.96,41.96 -23.17,0 -40.884,-12.1661 -40.884,-35.3361 0,-1.95 -0.441,-4.1705 -0.181,-6.0405"
           id="path3173-2-7-2-9-9-4-5-6-24"
           style="fill:#ffffff;fill-opacity:1"
           sodipodi:nodetypes="csccsccsccssssc" />
        <path
           class="cls-130"
           d="m 10654.07,2388.4 h 27.87 v 63.72 h -9.82 c -9.96,0 -18.147,-8.09 -18.151,-18.05 l -0.02,-45.68 c 0,0 0.119,0.01 0.119,0.01 z"
           id="path3174-4-0-8-3-7-4-0-49-5"
           style="fill:#ffffff;fill-opacity:1"
           sodipodi:nodetypes="cccsscc" />
        <path
           class="cls-130"
           d="m 10681.25,2536.5 h -27.331 v -63.72 l 4.961,8.62 c 5.189,9.0155 12.37,16.72 20.13,23.64 l 2.24,2 z"
           id="path3175-8-6-6-4-2-2-9-2-5"
           style="fill:#ffffff;fill-opacity:1"
           sodipodi:nodetypes="cccsccc" />
      </g>
      <text
         class="cls-43"
         id="text3657-1-0-8-1-2-6-8-3-8-1-3-3-5-58-1-6-2-4"
         style="font-size:105.833px;line-height:1;font-family:NeulisSans-Regular, 'Neulis Sans';text-align:center;text-anchor:middle;white-space:pre;inline-size:245.752;display:inline;fill:#00cde5;fill-opacity:1;stroke-width:0.264583"
         x="21.102024"
         y="-231.46449"
         transform="translate(186.83365,342.74935)"
         xml:space="preserve"><tspan
           x="21.102024"
           y="-231.46449"
           id="tspan2"><tspan
             style="font-style:italic;font-weight:bold;font-family:TTNormsProTrialVariable-CondBlackItalic, 'TT Norms Pro Trial Variable';-inkscape-font-specification:'TTNormsProTrialVariable-CondBlackItalic, TT Norms Pro Trial Variable Bold Italic'"
             id="tspan1">+</tspan></tspan></text>
    </g>
    <g
       id="g58"
       transform="translate(-8096.1932,-340.23029)">
      <rect
         style="fill:#2b2b5e;fill-opacity:1;stroke-width:0.3;stroke-miterlimit:1"
         id="rect57-1"
         width="294.21667"
         height="294.21667"
         x="8442.3242"
         y="332.31665" />
    </g>
    <g
       id="g6"
       transform="translate(0.41870836,-0.09089765)">
      <g
         id="g3175-6-2-5-3-9-4-0-0-8-4"
         transform="matrix(0.766155,0,0,0.78172534,-7785.5461,-1772.2478)"
         style="fill:#ffffff;fill-opacity:1">
        <circle
           class="cls-130"
           cx="10667.07"
           cy="2368.9199"
           r="14.87"
           id="circle3173-0-0-0-8-8-4-12-3-8-11"
           style="fill:#ffffff;fill-opacity:1" />
        <path
           class="cls-130"
           d="m 10662.865,2416.5177 c -11.274,15.3897 -8.404,9.4257 -8.936,29.4349 -0.201,7.5348 1.801,16.7531 4.671,24.2464 3.62,7.79 9.65,16.061 18.96,24.801 11.79,10.15 27.12,16.28 43.89,16.28 28.51,0 52.88,-17.73 62.7,-42.76 3.17,-8.43 4.57,-16.71 4.62,-24.62 -0.03,-37.15 -30.16,-67.25 -67.32,-67.25 -10.53,0 -20.49,2.42 -29.36,6.73 v 30.66 c 7.66,-8.24 18.59,-13.4 30.73,-13.4 23.17,0 41.96,18.79 41.96,41.96 0,23.17 -18.79,41.96 -41.96,41.96 -23.17,0 -40.884,-12.1661 -40.884,-35.3361 0,-1.95 -0.441,-4.1705 -0.181,-6.0405"
           id="path3173-2-7-2-9-9-4-5-6-24-3"
           style="fill:#ffffff;fill-opacity:1"
           sodipodi:nodetypes="csccsccsccssssc" />
        <path
           class="cls-130"
           d="m 10654.07,2388.4 h 27.87 v 63.72 h -9.82 c -9.96,0 -18.147,-8.09 -18.151,-18.05 l -0.02,-45.68 c 0,0 0.119,0.01 0.119,0.01 z"
           id="path3174-4-0-8-3-7-4-0-49-5-8"
           style="fill:#ffffff;fill-opacity:1"
           sodipodi:nodetypes="cccsscc" />
        <path
           class="cls-130"
           d="m 10681.25,2536.5 h -27.331 v -63.72 l 4.961,8.62 c 5.189,9.0155 12.37,16.72 20.13,23.64 l 2.24,2 z"
           id="path3175-8-6-6-4-2-2-9-2-5-7"
           style="fill:#ffffff;fill-opacity:1"
           sodipodi:nodetypes="cccsccc" />
      </g>
      <text
         class="cls-43"
         id="text3657-1-0-8-1-2-6-8-3-8-1-3-3-5-58-1-6"
         style="font-size:59.3776px;line-height:1;font-family:NeulisSans-Regular, 'Neulis Sans';text-align:center;text-anchor:middle;white-space:pre;inline-size:245.752;display:inline;fill:#2b2b5e;fill-opacity:1;stroke-width:0.264583"
         x="21.102024"
         y="-231.46449"
         transform="matrix(1.1750982,0,0,1.206044,490.88236,488.79725)"
         xml:space="preserve"><tspan
           x="21.102024"
           y="-231.46449"
           id="tspan4"><tspan
             style="font-style:italic;font-weight:bold;font-family:TTNormsProTrialVariable-CondBlackItalic, 'TT Norms Pro Trial Variable';-inkscape-font-specification:'TTNormsProTrialVariable-CondBlackItalic, TT Norms Pro Trial Variable Bold Italic';fill:#ffffff"
             id="tspan3">dei</tspan></tspan></text>
      <text
         class="cls-43"
         id="text3657-1-0-8-1-2-6-8-3-8-1-3-3-5-58-1-6-2"
         style="font-size:59.3776px;line-height:1;font-family:NeulisSans-Regular, 'Neulis Sans';text-align:center;text-anchor:middle;white-space:pre;inline-size:245.752;display:inline;fill:#00cde5;fill-opacity:1;stroke-width:0.264583"
         x="21.102024"
         y="-231.46449"
         transform="matrix(1.1750982,0,0,1.2015544,568.05846,465.78453)"
         xml:space="preserve"><tspan
           x="21.102024"
           y="-231.46449"
           id="tspan6"><tspan
             style="font-style:italic;font-weight:bold;font-family:TTNormsProTrialVariable-CondBlackItalic, 'TT Norms Pro Trial Variable';-inkscape-font-specification:'TTNormsProTrialVariable-CondBlackItalic, TT Norms Pro Trial Variable Bold Italic'"
             id="tspan5">+</tspan></tspan></text>
    </g>
    <g
       id="g62-1"
       transform="translate(-8446.8801,328.83556)"
       style="fill:#ffffff">
      <rect
         style="fill:#ffffff;fill-opacity:1;stroke-width:0.3;stroke-miterlimit:1"
         id="rect57-5"
         width="294.21667"
         height="294.21667"
         x="8443.3828"
         y="-8.466671" />
    </g>
    <g
       id="g7"
       transform="translate(-3.0257537e-4,-3.5475741e-5)">
      <g
         id="g3175-6-2-5-3-9-4-0-0-8-2"
         transform="matrix(0.98313823,0,0,0.95864588,-10419.964,-1876.3405)"
         style="fill:#000000;fill-opacity:1">
        <circle
           class="cls-130"
           cx="10667.07"
           cy="2368.9199"
           r="14.87"
           id="circle3173-0-0-0-8-8-4-12-3-8-7"
           style="fill:#000000;fill-opacity:1" />
        <path
           class="cls-130"
           d="m 10662.865,2416.5177 c -11.274,15.3897 -8.404,9.4257 -8.936,29.4349 -0.201,7.5348 1.801,16.7531 4.671,24.2464 3.62,7.79 9.65,16.061 18.96,24.801 11.79,10.15 27.12,16.28 43.89,16.28 28.51,0 52.88,-17.73 62.7,-42.76 3.17,-8.43 4.57,-16.71 4.62,-24.62 -0.03,-37.15 -30.16,-67.25 -67.32,-67.25 -10.53,0 -20.49,2.42 -29.36,6.73 v 30.66 c 7.66,-8.24 18.59,-13.4 30.73,-13.4 23.17,0 41.96,18.79 41.96,41.96 0,23.17 -18.79,41.96 -41.96,41.96 -23.17,0 -40.884,-12.1661 -40.884,-35.3361 0,-1.95 -0.441,-4.1705 -0.181,-6.0405"
           id="path3173-2-7-2-9-9-4-5-6-24-6"
           style="fill:#000000;fill-opacity:1"
           sodipodi:nodetypes="csccsccsccssssc" />
        <path
           class="cls-130"
           d="m 10654.07,2388.4 h 27.87 v 63.72 h -9.82 c -9.96,0 -18.147,-8.09 -18.151,-18.05 l -0.02,-45.68 c 0,0 0.119,0.01 0.119,0.01 z"
           id="path3174-4-0-8-3-7-4-0-49-5-1"
           style="fill:#000000;fill-opacity:1"
           sodipodi:nodetypes="cccsscc" />
        <path
           class="cls-130"
           d="m 10681.25,2536.5 h -27.331 v -63.72 l 4.961,8.62 c 5.189,9.0155 12.37,16.72 20.13,23.64 l 2.24,2 z"
           id="path3175-8-6-6-4-2-2-9-2-5-4"
           style="fill:#000000;fill-opacity:1"
           sodipodi:nodetypes="cccsccc" />
      </g>
      <text
         class="cls-43"
         id="text3657-1-0-8-1-2-6-8-3-8-1-3-3-5-58-1-6-2-4-2"
         style="font-size:105.833px;line-height:1;font-family:NeulisSans-Regular, 'Neulis Sans';text-align:center;text-anchor:middle;white-space:pre;inline-size:245.752;display:inline;fill:#00cde5;fill-opacity:1;stroke-width:0.264583"
         x="21.102024"
         y="-231.46449"
         transform="translate(187.56971,667.35158)"
         xml:space="preserve"><tspan
           x="21.102024"
           y="-231.46449"
           id="tspan8"><tspan
             style="font-style:italic;font-weight:bold;font-family:TTNormsProTrialVariable-CondBlackItalic, 'TT Norms Pro Trial Variable';-inkscape-font-specification:'TTNormsProTrialVariable-CondBlackItalic, TT Norms Pro Trial Variable Bold Italic'"
             id="tspan7">+</tspan></tspan></text>
    </g>
    <g
       id="g58-5"
       transform="translate(-8098.7063,-14.69171)"
       style="fill:#ffffff">
      <rect
         style="fill:#ffffff;fill-opacity:1;stroke-width:0.3;stroke-miterlimit:1"
         id="rect57-1-7"
         width="294.21667"
         height="294.21667"
         x="8442.3242"
         y="332.31665" />
    </g>
    <g
       id="g8"
       transform="translate(0.41871132,-0.09082391)">
      <g
         id="g3175-6-2-5-3-9-4-0-0-8-4-6"
         transform="matrix(0.766155,0,0,0.78172534,-7788.0592,-1446.7093)"
         style="fill:#000000;fill-opacity:1">
        <circle
           class="cls-130"
           cx="10667.07"
           cy="2368.9199"
           r="14.87"
           id="circle3173-0-0-0-8-8-4-12-3-8-11-1"
           style="fill:#000000;fill-opacity:1" />
        <path
           class="cls-130"
           d="m 10662.865,2416.5177 c -11.274,15.3897 -8.404,9.4257 -8.936,29.4349 -0.201,7.5348 1.801,16.7531 4.671,24.2464 3.62,7.79 9.65,16.061 18.96,24.801 11.79,10.15 27.12,16.28 43.89,16.28 28.51,0 52.88,-17.73 62.7,-42.76 3.17,-8.43 4.57,-16.71 4.62,-24.62 -0.03,-37.15 -30.16,-67.25 -67.32,-67.25 -10.53,0 -20.49,2.42 -29.36,6.73 v 30.66 c 7.66,-8.24 18.59,-13.4 30.73,-13.4 23.17,0 41.96,18.79 41.96,41.96 0,23.17 -18.79,41.96 -41.96,41.96 -23.17,0 -40.884,-12.1661 -40.884,-35.3361 0,-1.95 -0.441,-4.1705 -0.181,-6.0405"
           id="path3173-2-7-2-9-9-4-5-6-24-3-8"
           style="fill:#000000;fill-opacity:1"
           sodipodi:nodetypes="csccsccsccssssc" />
        <path
           class="cls-130"
           d="m 10654.07,2388.4 h 27.87 v 63.72 h -9.82 c -9.96,0 -18.147,-8.09 -18.151,-18.05 l -0.02,-45.68 c 0,0 0.119,0.01 0.119,0.01 z"
           id="path3174-4-0-8-3-7-4-0-49-5-8-9"
           style="fill:#000000;fill-opacity:1"
           sodipodi:nodetypes="cccsscc" />
        <path
           class="cls-130"
           d="m 10681.25,2536.5 h -27.331 v -63.72 l 4.961,8.62 c 5.189,9.0155 12.37,16.72 20.13,23.64 l 2.24,2 z"
           id="path3175-8-6-6-4-2-2-9-2-5-7-2"
           style="fill:#000000;fill-opacity:1"
           sodipodi:nodetypes="cccsccc" />
      </g>
      <text
         class="cls-43"
         id="text3657-1-0-8-1-2-6-8-3-8-1-3-3-5-58-1-6-7"
         style="font-size:59.3776px;line-height:1;font-family:NeulisSans-Regular, 'Neulis Sans';text-align:center;text-anchor:middle;white-space:pre;inline-size:245.752;display:inline;fill:#000000;fill-opacity:1;stroke-width:0.264583"
         x="21.102024"
         y="-231.46449"
         transform="matrix(1.1750982,0,0,1.2037985,488.36927,813.71794)"
         xml:space="preserve"><tspan
           x="21.102024"
           y="-231.46449"
           id="tspan10"><tspan
             style="font-style:italic;font-weight:bold;font-family:TTNormsProTrialVariable-CondBlackItalic, 'TT Norms Pro Trial Variable';-inkscape-font-specification:'TTNormsProTrialVariable-CondBlackItalic, TT Norms Pro Trial Variable Bold Italic'"
             id="tspan9">dei</tspan></tspan></text>
      <text
         class="cls-43"
         id="text3657-1-0-8-1-2-6-8-3-8-1-3-3-5-58-1-6-2-3"
         style="font-size:59.3776px;line-height:1;font-family:NeulisSans-Regular, 'Neulis Sans';text-align:center;text-anchor:middle;white-space:pre;inline-size:245.752;display:inline;fill:#00cde5;fill-opacity:1;stroke-width:0.264583"
         x="21.102024"
         y="-231.46449"
         transform="matrix(1.1750982,0,0,1.2015544,565.54537,791.32311)"
         xml:space="preserve"><tspan
           x="21.102024"
           y="-231.46449"
           id="tspan12"><tspan
             style="font-style:italic;font-weight:bold;font-family:TTNormsProTrialVariable-CondBlackItalic, 'TT Norms Pro Trial Variable';-inkscape-font-specification:'TTNormsProTrialVariable-CondBlackItalic, TT Norms Pro Trial Variable Bold Italic'"
             id="tspan11">+</tspan></tspan></text>
    </g>
  </g>
</svg>
